<svg xmlns="http://www.w3.org/2000/svg" viewBox="0 0 379 251">
  <path
    fill="#0087df"
    fill-rule="evenodd"
    d="M325.476 16.5C324.803 17.05 321.796 21.325 318.794 26C295.01 63.045 287.097 75.189 283.8 79.707C281.71 82.571 280 85.384 280 85.957C280 86.57 282.889 87.052 287 87.125C295.069 87.269 295.659 87.324 296.33 88C296.603 88.275 300.578 88.275 305.163 88L313.5 87.5L320.154 77.5C343.623 42.227 359.994 16.661 359.457 16.124C358.402 15.071 326.799 15.42 325.476 16.5"
  />

  <path
    fill="#fefefe"
    fill-rule="evenodd"
    d="M99.667 15.667C99.3 16.033 99 55.604 99 103.602C99 162.829 98.658 191.774 97.936 193.685C95.086 201.23 85.72 205.706 74.847 204.72C63.166 203.661 58.062 197.457 58.022 184.269C58.002 177.582 57.831 177.003 55.75 176.577C54.512 176.323 44.838 175.834 34.25 175.49L15 174.864L15.017 183.182C15.078 212.281 30.045 232.157 56.815 238.69C64.701 240.615 86.152 240.781 96.088 238.993C114.506 235.68 130.793 222.338 137.3 205.233C139.468 199.535 139.484 198.946 139.991 110C140.271 60.775 140.336 19.262 140.137 17.75L139.773 15H120.053C109.207 15 100.033 15.3 99.667 15.667

    M156.443 16.287C156.172 16.994 156.074 25.207 156.225 34.537L156.5 51.5L204.167 52C230.384 52.275 252.121 52.787 252.471 53.137C252.821 53.487 253.172 54.63 253.251 55.677C253.464 58.505 229.431 96.483 226.616 97.765C225.257 98.384 212.593 99.089 196.389 99.446C181.05 99.785 165.688 100.309 162.25 100.611L156 101.159V119.521C156 132.069 156.357 138.103 157.128 138.579C157.748 138.962 164.589 139.776 172.331 140.388L186.407 141.5L194.266 151.5C201.435 160.622 215.989 179.278 245.921 217.712C252.008 225.528 257.862 232.391 258.929 232.962C261.237 234.197 312.338 234.417 311.833 233.189C311.513 232.411 296.493 213.406 255.318 161.681L236.136 137.584L244.318 135.903C261.797 132.312 274.682 124.455 284.334 111.5C290.463 103.274 297.769 89.436 296.6 88.267C295.576 87.242 293.302 87.041 281.749 86.953C271.064 86.872 271.005 86.858 272.151 84.718C273.73 81.767 302.904 35.431 309.586 25.26C312.564 20.728 315 16.565 315 16.01C315 15.339 288.502 15 235.969 15C172.463 15 156.84 15.253 156.443 16.287"
  />
</svg>